<?xml version="1.0" encoding="utf-8"?>
<!-- Generator: Adobe Illustrator 18.0.0, SVG Export Plug-In . SVG Version: 6.00 Build 0)  -->
<!DOCTYPE svg PUBLIC "-//W3C//DTD SVG 1.1//EN" "http://www.w3.org/Graphics/SVG/1.1/DTD/svg11.dtd">
<svg version="1.1" id="Layer_1" xmlns="http://www.w3.org/2000/svg" xmlns:xlink="http://www.w3.org/1999/xlink" x="0px" y="0px"
	 viewBox="0 0 300 300" enable-background="new 0 0 300 300" xml:space="preserve">
<g id="Lock" display="none">
	<g id="Ring_2_" display="inline">
		<g>
			<path fill-rule="evenodd" clip-rule="evenodd" fill="#444444" d="M150.1,1.2c-46.2,0-83.7,37.5-83.7,83.7v83.7
				c0,25,11,47.4,28.3,62.8c-0.3-2.3-0.4-4.6-0.4-7V84.9c0-30.8,25-55.8,55.8-55.8c30.8,0,55.8,25,55.8,55.8v139.5
				c0,2.4-0.2,4.7-0.4,7c17.4-15.3,28.3-37.8,28.3-62.8V84.9C233.8,38.7,196.3,1.2,150.1,1.2z"/>
		</g>
	</g>
	<g id="Lock_Shadow_1_" display="inline" opacity="0.102">
		<g>
			<path fill-rule="evenodd" clip-rule="evenodd" d="M252.4,131.4h-18.6v-27.9c0-46.2-37.5-83.7-83.7-83.7
				c-46.2,0-83.7,37.5-83.7,83.7v27.9H47.8c-10.3,0-18.6,8.3-18.6,18.6v130.2c0,10.3,8.3,18.6,18.6,18.6h204.6
				c10.3,0,18.6-8.3,18.6-18.6V150C271,139.7,262.6,131.4,252.4,131.4z M205.9,187.2c0,30.8-25,55.8-55.8,55.8
				c-30.8,0-55.8-25-55.8-55.8v-83.7c0-30.8,25-55.8,55.8-55.8c30.8,0,55.8,25,55.8,55.8V187.2z"/>
		</g>
	</g>
	<g id="Lock_1_" display="inline">
		<g>
			<path fill-rule="evenodd" clip-rule="evenodd" fill="#FFFFFF" d="M252.4,112.8H47.8c-10.3,0-18.6,8.3-18.6,18.6v130.2
				c0,10.3,8.3,18.6,18.6,18.6h204.6c10.3,0,18.6-8.3,18.6-18.6V131.4C271,121.1,262.6,112.8,252.4,112.8z"/>
		</g>
	</g>
	<g id="Inner_Shadow_1_1_" display="inline" opacity="0.102">
		<g>
			<path fill-rule="evenodd" clip-rule="evenodd" d="M252.4,112.8h-18.6v167.4h18.6c10.3,0,18.6-8.3,18.6-18.6V131.4
				C271,121.1,262.6,112.8,252.4,112.8z"/>
		</g>
	</g>
	<g id="Inner_Shadow_2_1_" display="inline" opacity="5.098039e-002">
		<g>
			<rect x="66.4" y="112.8" fill-rule="evenodd" clip-rule="evenodd" width="167.4" height="167.4"/>
		</g>
	</g>
	<g id="Hole_Inner_1_" display="inline">
		<g>
			<path fill-rule="evenodd" clip-rule="evenodd" fill="#444444" d="M178,187.2c0-15.4-12.5-27.9-27.9-27.9
				c-15.4,0-27.9,12.5-27.9,27.9c0,8.8,4.1,16.6,10.4,21.7c-0.7,1.9-1.1,4-1.1,6.2c0,10.3,8.3,18.6,18.6,18.6s18.6-8.3,18.6-18.6
				c0-2.2-0.4-4.3-1.1-6.2C173.9,203.8,178,196,178,187.2z"/>
		</g>
	</g>
</g>
<g id="Journal" display="none">
	<g id="Diary" display="inline">
		<g>
			<path fill-rule="evenodd" clip-rule="evenodd" fill="#2E4980" d="M197,0H37.4c-8,0-14.5,6.5-14.5,14.5v188.6
				c0,8,6.5,14.5,14.5,14.5H197c8,0,14.5-6.5,14.5-14.5V14.5C211.5,6.5,205,0,197,0z"/>
		</g>
	</g>
	<g id="Binding" display="inline" opacity="0.349">
		<g>
			<path fill-rule="evenodd" clip-rule="evenodd" d="M37.4,0c-8,0-14.5,6.5-14.5,14.5v188.6c0,8,6.5,14.5,14.5,14.5h29V0H37.4z"/>
		</g>
	</g>
	<g id="Bookmark" display="inline">
		<g>
			<polygon fill-rule="evenodd" clip-rule="evenodd" fill="#FFFFFF" points="138.9,0 138.9,58 157.1,39.9 175.2,58 175.2,0 			"/>
		</g>
	</g>
	<g id="Photo_Shadow_2_" display="inline" opacity="0.102">
		<g>
			<path fill-rule="evenodd" clip-rule="evenodd" d="M263,76.4H107.9c-7.8,0-14.1,6.3-14.1,14.1v197.4c0,7.8,6.3,14.1,14.1,14.1H263
				c7.8,0,14.1-6.3,14.1-14.1V90.5C277.1,82.7,270.8,76.4,263,76.4z"/>
		</g>
	</g>
	<g id="Document" display="inline">
		<g>
			<path fill-rule="evenodd" clip-rule="evenodd" fill="#FFFFFF" d="M263,76.4H107.9c-7.8,0-14.1,6.3-14.1,14.1v183.3
				c0,7.8,6.3,14.1,14.1,14.1H263c7.8,0,14.1-6.3,14.1-14.1V90.5C277.1,82.7,270.8,76.4,263,76.4z"/>
		</g>
	</g>
	<g id="Text_1_" display="inline" opacity="0.251">
		<g>
			<path fill-rule="evenodd" clip-rule="evenodd" d="M199.5,104.6h-42.3v14.1h42.3V104.6z M157.2,132.8v14.1h98.7v-14.1H157.2z
				 M157.2,175.1h98.7V161h-98.7V175.1z M157.2,203.3h98.7v-14.1h-98.7V203.3z M157.2,231.5h98.7v-14.1h-98.7V231.5z M157.2,259.7
				h70.5v-14.1h-70.5V259.7z"/>
		</g>
	</g>
	<g id="Holes" display="inline">
		<g>
			<path fill-rule="evenodd" clip-rule="evenodd" fill="#444444" d="M125.5,132.8c5.8,0,10.6-4.7,10.6-10.6
				c0-5.8-4.7-10.6-10.6-10.6c-5.8,0-10.6,4.7-10.6,10.6C114.9,128.1,119.7,132.8,125.5,132.8z M125.5,228
				c-5.8,0-10.6,4.7-10.6,10.6c0,5.8,4.7,10.6,10.6,10.6c5.8,0,10.6-4.7,10.6-10.6C136.1,232.8,131.4,228,125.5,228z"/>
		</g>
	</g>
</g>
<g id="Settings">
	<g id="Money_Shadow_2_" opacity="0.102">
		<g>
			<path fill-rule="evenodd" clip-rule="evenodd" d="M204.8,188.4L204.8,188.4l-23.3-4.7c-1.9-8.1-5.1-15.6-9.3-22.5l13.2-19.8l0,0
				c1.3-1.6,1.3-4.1-0.3-5.6l-11.8-11.8c-1.5-1.5-4-1.6-5.6-0.3l0,0l-19.8,13.2c-6.8-4.2-14.4-7.4-22.5-9.3l-4.7-23.3l0,0
				c-0.2-2.1-2-3.8-4.1-3.8H99.8c-2.2,0-3.9,1.7-4.1,3.8l0,0l-4.7,23.3c-8.1,1.9-15.6,5.1-22.5,9.3l-19.8-13.2l0,0
				c-1.6-1.3-4.1-1.3-5.6,0.3l-11.8,11.8c-1.5,1.5-1.6,4-0.3,5.6l0,0l13.2,19.8c-4.3,6.8-7.4,14.4-9.3,22.5l-23.3,4.7l0,0
				c-2.1,0.2-3.8,2-3.8,4.1v16.7c0,2.2,1.7,3.9,3.8,4.1l0,0l23.3,4.7c1.9,8.1,5.1,15.6,9.3,22.5l-13.2,19.8l0,0
				c-1.3,1.6-1.3,4.1,0.3,5.6L43,277.8c1.5,1.5,4,1.6,5.6,0.3l0,0l19.8-13.2c6.8,4.2,14.4,7.4,22.5,9.3l4.7,23.3l0,0
				c0.2,2.1,2,3.8,4.1,3.8h16.7c2.2,0,3.9-1.7,4.1-3.8l0,0l4.7-23.3c8.1-1.9,15.6-5.1,22.5-9.3l19.8,13.2l0,0
				c1.6,1.3,4.1,1.3,5.6-0.3l11.8-11.8c1.5-1.5,1.6-4,0.3-5.6l0,0l-13.2-19.8c4.3-6.8,7.4-14.4,9.3-22.5l23.3-4.7l0,0
				c2.1-0.2,3.8-2,3.8-4.1v-16.7C208.6,190.4,206.9,188.6,204.8,188.4z M108.1,209.3c-9.2,0-16.7-7.5-16.7-16.7s7.5-16.7,16.7-16.7
				s16.7,7.5,16.7,16.7S117.4,209.3,108.1,209.3z M290.9,96.1L290.9,96.1l-11.8-7.9c1-5.8,1-11.7,0-17.3l11.8-7.9l0,0
				c1.2-0.7,1.8-2.1,1.2-3.4l-4.2-10.1c-0.5-1.3-2-2-3.3-1.6l0,0l-14,2.8c-3.3-4.7-7.4-8.8-12.2-12.2l2.8-13.9l0,0
				c0.4-1.3-0.2-2.8-1.6-3.3l-10.1-4.2c-1.3-0.5-2.8,0-3.4,1.2l0,0L238.2,30c-5.8-1-11.7-1-17.3,0L213,18.2l0,0
				c-0.7-1.2-2.1-1.8-3.4-1.2l-10.1,4.2c-1.3,0.5-2,2-1.6,3.3l0,0l2.8,14c-4.7,3.3-8.9,7.4-12.3,12.2l-13.9-2.8l0,0
				c-1.3-0.4-2.8,0.2-3.3,1.6L167,59.5c-0.5,1.3,0,2.8,1.2,3.4l0,0l11.8,7.9c-1,5.8-1,11.7,0,17.3l-11.8,7.9l0,0
				c-1.2,0.7-1.8,2.1-1.2,3.4l4.2,10.1c0.5,1.3,2,2,3.3,1.6l0,0l14-2.8c3.3,4.7,7.4,8.8,12.2,12.2l-2.8,13.9l0,0
				c-0.4,1.3,0.2,2.8,1.6,3.3l10.1,4.2c1.3,0.5,2.8,0,3.4-1.2l0,0l7.9-11.8c5.8,1,11.7,1,17.3,0l7.9,11.8l0,0
				c0.7,1.2,2.1,1.8,3.4,1.2l10.1-4.2c1.3-0.5,2-2,1.6-3.3l0,0l-2.8-14c4.7-3.3,8.9-7.4,12.3-12.2l13.9,2.8l0,0
				c1.3,0.4,2.8-0.2,3.3-1.6l4.2-10.1C292.6,98.2,292.1,96.7,290.9,96.1z M241.1,75.9c-2.7,6.4-10,9.4-16.4,6.8
				c-6.4-2.7-9.4-10-6.8-16.4c2.7-6.4,10-9.4,16.4-6.8C240.7,62.2,243.8,69.5,241.1,75.9z"/>
		</g>
	</g>
	<g id="Yellow_1_">
		<g>
			<path fill-rule="evenodd" clip-rule="evenodd" fill="#4DD0E1" d="M108.1,146.5c-20.8,0-37.7,16.9-37.7,37.7s16.9,37.7,37.7,37.7
				c20.8,0,37.7-16.9,37.7-37.7S129,146.5,108.1,146.5z M108.1,200.9c-9.2,0-16.7-7.5-16.7-16.7c0-9.2,7.5-16.7,16.7-16.7
				s16.7,7.5,16.7,16.7C124.9,193.4,117.4,200.9,108.1,200.9z M229.5,37.7c-13.9,0-25.1,11.2-25.1,25.1c0,13.9,11.2,25.1,25.1,25.1
				c13.9,0,25.1-11.2,25.1-25.1C254.6,48.9,243.4,37.7,229.5,37.7z M229.5,75.3c-6.9,0-12.6-5.6-12.6-12.6c0-6.9,5.6-12.6,12.6-12.6
				c6.9,0,12.6,5.6,12.6,12.6C242.1,69.7,236.5,75.3,229.5,75.3z"/>
		</g>
	</g>
	<g id="Gears">
		<g>
			<path fill-rule="evenodd" clip-rule="evenodd" fill="#97A4AA" d="M204.8,171.6L204.8,171.6l-23.3-4.7c-1.9-8.1-5.1-15.6-9.3-22.5
				l13.2-19.8l0,0c1.3-1.6,1.3-4.1-0.3-5.6l-11.8-11.8c-1.5-1.5-4-1.6-5.6-0.3l0,0l-19.8,13.2c-6.8-4.2-14.4-7.4-22.5-9.3l-4.7-23.3
				l0,0c-0.2-2.1-2-3.8-4.1-3.8H99.8c-2.2,0-3.9,1.7-4.1,3.8l0,0l-4.7,23.3c-8.1,1.9-15.6,5.1-22.5,9.3l-19.8-13.2l0,0
				c-1.6-1.3-4.1-1.3-5.6,0.3L31.2,119c-1.5,1.5-1.6,4-0.3,5.6l0,0l13.2,19.8c-4.3,6.8-7.4,14.4-9.3,22.5l-23.3,4.7l0,0
				c-2.1,0.2-3.8,2-3.8,4.1v16.7c0,2.2,1.7,3.9,3.8,4.1l0,0l23.3,4.7c1.9,8.1,5.1,15.6,9.3,22.5l-13.2,19.8l0,0
				c-1.3,1.6-1.3,4.1,0.3,5.6L43,261.1c1.5,1.5,4,1.6,5.6,0.3l0,0l19.8-13.2c6.8,4.2,14.4,7.4,22.5,9.3l4.7,23.3l0,0
				c0.2,2.1,2,3.8,4.1,3.8h16.7c2.2,0,3.9-1.7,4.1-3.8l0,0l4.7-23.3c8.1-1.9,15.6-5.1,22.5-9.3l19.8,13.2l0,0
				c1.6,1.3,4.1,1.3,5.6-0.3l11.8-11.8c1.5-1.5,1.6-4,0.3-5.6l0,0l-13.2-19.8c4.3-6.8,7.4-14.4,9.3-22.5l23.3-4.7l0,0
				c2.1-0.2,3.8-2,3.8-4.1v-16.7C208.6,173.6,206.9,171.8,204.8,171.6z M108.1,217.6c-18.5,0-33.5-15-33.5-33.5
				c0-18.5,15-33.5,33.5-33.5c18.5,0,33.5,15,33.5,33.5C141.6,202.6,126.6,217.6,108.1,217.6z M290.9,79.4L290.9,79.4l-11.8-7.9
				c1-5.8,1-11.7,0-17.3l11.8-7.9l0,0c1.2-0.7,1.8-2.1,1.2-3.4l-4.2-10.1c-0.5-1.3-2-2-3.3-1.6l0,0l-14,2.8
				c-3.3-4.7-7.4-8.8-12.2-12.2l2.8-13.9l0,0c0.4-1.3-0.2-2.8-1.6-3.3l-10.1-4.2c-1.3-0.5-2.8,0-3.4,1.2l0,0l-7.9,11.8
				c-5.8-1-11.7-1-17.3,0L213,1.4l0,0c-0.7-1.2-2.1-1.8-3.4-1.2l-10.1,4.2c-1.3,0.5-2,2-1.6,3.3l0,0l2.8,14
				c-4.7,3.3-8.9,7.4-12.3,12.2l-13.9-2.8l0,0c-1.3-0.4-2.8,0.2-3.3,1.6L167,42.8c-0.5,1.3,0,2.8,1.2,3.4l0,0l11.8,7.9
				c-1,5.8-1,11.7,0,17.3l-11.8,7.9l0,0c-1.2,0.7-1.8,2.1-1.2,3.4l4.2,10.1c0.5,1.3,2,2,3.3,1.6l0,0l14-2.8
				c3.3,4.7,7.4,8.8,12.2,12.2l-2.8,13.9l0,0c-0.4,1.3,0.2,2.8,1.6,3.3l10.1,4.2c1.3,0.5,2.8,0,3.4-1.2l0,0l7.9-11.8
				c5.8,1,11.7,1,17.3,0l7.9,11.8l0,0c0.7,1.2,2.1,1.8,3.4,1.2l10.1-4.2c1.3-0.5,2-2,1.6-3.3l0,0l-2.8-14c4.7-3.3,8.9-7.4,12.3-12.2
				l13.9,2.8l0,0c1.3,0.4,2.8-0.2,3.3-1.6l4.2-10.1C292.6,81.5,292.1,80,290.9,79.4z M248.8,70.8c-4.4,10.7-16.6,15.7-27.3,11.3
				c-10.7-4.4-15.7-16.6-11.3-27.3c4.4-10.7,16.6-15.7,27.3-11.3C248.2,47.9,253.3,60.1,248.8,70.8z"/>
		</g>
	</g>
</g>
</svg>
